<?xml version="1.0" encoding="UTF-8"?>
<svg id="_レイヤー_2" data-name="レイヤー_2" xmlns="http://www.w3.org/2000/svg" viewBox="0 0 116.7 116.7">
  <defs>
    <style>
      .cls-1 {
        fill: #fff;
      }

      .cls-2 {
        fill: #e6255f;
      }

      .cls-3 {
        stroke-width: 5px;
      }

      .cls-3, .cls-4 {
        fill: none;
        stroke: #e6255f;
        stroke-linecap: round;
        stroke-linejoin: round;
      }

      .cls-4 {
        stroke-width: 3px;
      }
    </style>
  </defs>
  <g id="bg">
    <circle class="cls-1" cx="58.35" cy="58.35" r="58.35"/>
    <circle class="cls-4" cx="58.35" cy="49.03" r="16.4"/>
    <circle class="cls-4" cx="82.35" cy="33.33" r="3.72"/>
    <circle class="cls-4" cx="58.35" cy="49.03" r="10.61"/>
  </g>
  <g id="object">
    <rect class="cls-3" x="23.03" y="22.9" width="70.65" height="52.25" rx="8.3" ry="8.3"/>
    <polyline class="cls-4" points="41.95 22.9 50.26 14.59 66.49 14.59 74.75 22.86"/>
  </g>
  <g id="text">
    <g>
      <path class="cls-2" d="M50.49,103.16c-1.16,0-2.23-.2-3.2-.59-.97-.39-1.82-.95-2.53-1.67-.71-.72-1.27-1.59-1.67-2.6-.4-1.01-.6-2.14-.6-3.38s.2-2.39.6-3.4c.4-1.01.96-1.88,1.67-2.6.71-.72,1.56-1.28,2.53-1.67.97-.39,2.04-.59,3.2-.59s2.23.2,3.21.59c.98.39,1.83.95,2.54,1.67.71.72,1.27,1.59,1.67,2.6.4,1.01.6,2.15.6,3.4s-.2,2.37-.6,3.38c-.4,1.01-.96,1.88-1.67,2.6-.71.72-1.56,1.28-2.54,1.67-.98.39-2.05.59-3.21.59ZM50.49,100.3c.76,0,1.45-.13,2.07-.4.62-.27,1.14-.64,1.57-1.11.43-.47.76-1.04.99-1.7.23-.66.35-1.38.35-2.17s-.12-1.51-.35-2.17c-.23-.66-.56-1.23-.99-1.71-.43-.48-.95-.85-1.57-1.12-.62-.27-1.31-.4-2.07-.4s-1.45.13-2.06.4c-.61.27-1.14.64-1.57,1.12s-.77,1.05-1,1.71c-.23.66-.35,1.38-.35,2.17s.12,1.51.35,2.17c.23.66.57,1.23,1,1.7.43.47.96.84,1.57,1.11.61.27,1.3.4,2.06.4Z"/>
      <path class="cls-2" d="M61.75,102.86c-.19,0-.28-.09-.28-.28v-15.34c0-.19.09-.28.28-.28h2.36c.19,0,.28.09.28.28v7.28l6.36-7.4c.09-.11.21-.16.36-.16h2.76c.16,0,.24.06.24.18,0,.03-.03.08-.08.16l-5.02,5.68,5.76,9.54c.03.08.04.13.04.14,0,.13-.08.2-.24.2h-2.8c-.16,0-.27-.07-.32-.2l-4.38-7.52-2.68,3.04v4.4c0,.19-.09.28-.28.28h-2.36Z"/>
    </g>
  </g>
</svg>