<?xml version="1.0" encoding="UTF-8"?>
<svg id="_レイヤー_2" data-name="レイヤー_2" xmlns="http://www.w3.org/2000/svg" viewBox="0 0 66.64 305.11">
  <defs>
    <style>
      .cls-1 {
        fill: #fafafb;
      }
    </style>
  </defs>
  <g id="text">
    <g>
      <polygon class="cls-1" points=".1 22.93 .1 19.7 57.65 19.7 40.23 2.28 42.51 0 65.45 22.93 .1 22.93"/>
      <path class="cls-1" d="M.1,220.15v-3.23h4.88v-29.76l32.99,32.99H8.2v25.3h-3.23v-25.3H.1ZM8.2,194.96v21.96h21.96l-21.96-21.96Z"/>
      <polygon class="cls-1" points="8.23 28.42 56 28.42 64.82 50.22 61.83 51.43 53.82 31.65 12 31.65 13.94 44.14 10.75 44.64 8.23 28.42"/>
      <polygon class="cls-1" points=".22 61.13 59.81 41.83 60.81 44.9 6.29 62.56 16.98 73.08 14.72 75.38 .22 61.13"/>
      <rect class="cls-1" x="32.75" y="30.04" width="3.23" height="31.81"/>
      <rect class="cls-1" x=".33" y="28.42" width="3.23" height="22.41"/>
      <polygon class="cls-1" points="49.11 58.57 51.39 56.27 64.94 69.7 64.94 91.83 53.32 81.34 55.48 78.94 61.71 84.56 61.71 71.05 49.11 58.57"/>
      <polygon class="cls-1" points=".33 97.95 .33 86.96 3.56 86.96 3.56 94.72 20.53 94.72 20.53 97.95 .33 97.95"/>
      <rect class="cls-1" x="32.75" y="74.46" width="3.23" height="11.14"/>
      <rect class="cls-1" x="27.69" y="78.9" width="13.61" height="3.23"/>
      <polygon class="cls-1" points=".1 114.33 .1 111.09 44.32 111.09 44.32 119.83 61.71 119.83 61.71 94.3 64.94 94.3 64.94 123.06 41.09 123.06 41.09 114.33 .1 114.33"/>
      <rect class="cls-1" x=".1" y="129.13" width="38.82" height="3.23"/>
      <rect class="cls-1" x="48.23" y="104.96" width="15.1" height="3.23"/>
      <rect class="cls-1" x="27.45" y="101.19" width="3.23" height="21.43"/>
      <path class="cls-1" d="M12.72,81.88c0-11.94,9.71-21.65,21.65-21.65s21.65,9.71,21.65,21.65-9.71,21.65-21.65,21.65-21.65-9.71-21.65-21.65ZM52.79,81.88c0-10.15-8.26-18.41-18.41-18.41s-18.42,8.26-18.42,18.41,8.26,18.42,18.42,18.42,18.41-8.26,18.41-18.42Z"/>
      <rect class="cls-1" x="12.72" y="96.34" width="3.23" height="26.29"/>
      <polygon class="cls-1" points="6.7 122.99 6.7 119.62 64.86 136.92 64.86 140.29 6.7 122.99"/>
      <polygon class="cls-1" points=".33 173.47 .33 150.99 33.96 160.86 33.96 143.04 27.46 140.32 27.45 137.1 37.19 140.77 37.19 165.18 3.56 155.3 3.56 173.47 .33 173.47"/>
      <polygon class="cls-1" points="44.46 143.91 45.77 140.96 64.94 149.46 64.94 173.47 55.26 170.19 56.29 167.13 61.71 168.97 61.71 151.56 44.46 143.91"/>
      <polygon class="cls-1" points="41.09 181.98 41.09 145.98 48.92 145.98 48.92 149.21 44.32 149.21 44.32 178.75 53.52 178.75 53.52 151.86 56.75 151.86 56.75 181.98 41.09 181.98"/>
      <rect class="cls-1" x="42.43" y="162.36" width="11.97" height="3.23"/>
      <rect class="cls-1" x="-.54" y="172.59" width="43.99" height="3.23" transform="translate(-51.52 14.57) rotate(-17.55)"/>
      <rect class="cls-1" x="31.28" y="170.23" width="3.23" height="10.89" transform="translate(-113.89 73.7) rotate(-44.6)"/>
      <rect class="cls-1" x="60.01" y="215.91" width="6.63" height="3.23"/>
      <polygon class="cls-1" points="13.61 184.87 14.19 181.7 61.63 190.39 61.63 245.45 58.4 245.45 58.4 193.09 13.61 184.87"/>
      <rect class="cls-1" x="46.61" y="193.66" width="3.23" height="48.66"/>
      <polygon class="cls-1" points="32.88 211.93 32.88 201.94 54.4 201.94 54.4 205.17 36.11 205.17 36.11 211.93 32.88 211.93"/>
      <polygon class="cls-1" points="32.88 234.64 32.88 224.6 36.11 224.6 36.11 231.41 54.4 231.41 54.4 234.64 32.88 234.64"/>
      <polygon class="cls-1" points="12.01 245.6 12.01 224.72 29.07 224.72 29.07 227.96 15.24 227.96 15.24 242.37 34.49 242.37 34.49 245.6 12.01 245.6"/>
      <polygon class="cls-1" points=".1 262.41 .1 259.18 37.77 259.18 37.77 242.31 41.01 242.31 41.01 262.41 .1 262.41"/>
      <polygon class="cls-1" points=".33 305.11 .33 268.85 3.56 268.85 3.56 301.88 61.71 301.88 61.71 262.41 44.45 262.41 44.45 259.18 64.94 259.18 64.94 305.11 .33 305.11"/>
      <rect class="cls-1" x="32.88" y="269.56" width="3.23" height="23.73"/>
      <polygon class="cls-1" points="13.34 143.31 13.37 139.9 31.15 145.89 31.15 149.3 13.34 143.31"/>
      <polygon class="cls-1" points="13.34 150.44 13.37 147.04 31.15 153.03 31.15 156.44 13.34 150.44"/>
    </g>
  </g>
</svg>