<?xml version="1.0" encoding="UTF-8"?>
<svg id="_レイヤー_2" data-name="レイヤー_2" xmlns="http://www.w3.org/2000/svg" viewBox="0 0 305.11 66.64">
  <defs>
    <style>
      .cls-1 {
        fill: #fafafb;
      }
    </style>
  </defs>
  <g id="text">
    <g>
      <polygon class="cls-1" points="22.93 66.54 19.7 66.54 19.7 8.99 2.28 26.41 0 24.13 22.93 1.19 22.93 66.54"/>
      <path class="cls-1" d="M220.15,66.54h-3.23v-4.88h-29.76l32.99-32.99v29.76h25.3v3.23h-25.3v4.88ZM194.96,58.43h21.96v-21.96l-21.96,21.96Z"/>
      <polygon class="cls-1" points="28.42 58.41 28.42 10.64 50.22 1.82 51.43 4.81 31.65 12.82 31.65 54.64 44.14 52.7 44.64 55.89 28.42 58.41"/>
      <polygon class="cls-1" points="61.13 66.42 41.83 6.83 44.9 5.83 62.56 60.35 73.08 49.65 75.38 51.92 61.13 66.42"/>
      <rect class="cls-1" x="30.04" y="30.65" width="31.81" height="3.23"/>
      <rect class="cls-1" x="28.42" y="63.08" width="22.41" height="3.23"/>
      <polygon class="cls-1" points="58.57 17.53 56.27 15.25 69.7 1.7 91.83 1.7 81.34 13.32 78.94 11.16 84.56 4.93 71.05 4.93 58.57 17.53"/>
      <polygon class="cls-1" points="97.95 66.31 86.96 66.31 86.96 63.08 94.72 63.08 94.72 46.11 97.95 46.11 97.95 66.31"/>
      <rect class="cls-1" x="74.46" y="30.65" width="11.14" height="3.23"/>
      <rect class="cls-1" x="78.9" y="25.34" width="3.23" height="13.61"/>
      <polygon class="cls-1" points="114.33 66.54 111.09 66.54 111.09 22.32 119.83 22.32 119.83 4.93 94.3 4.93 94.3 1.7 123.06 1.7 123.06 25.55 114.33 25.55 114.33 66.54"/>
      <rect class="cls-1" x="129.13" y="27.73" width="3.23" height="38.82"/>
      <rect class="cls-1" x="104.96" y="3.31" width="3.23" height="15.1"/>
      <rect class="cls-1" x="101.19" y="35.95" width="21.43" height="3.23"/>
      <path class="cls-1" d="M81.88,53.92c-11.94,0-21.65-9.71-21.65-21.65s9.71-21.65,21.65-21.65,21.65,9.71,21.65,21.65-9.71,21.65-21.65,21.65ZM81.88,13.85c-10.15,0-18.41,8.26-18.41,18.41s8.26,18.42,18.41,18.42,18.42-8.26,18.42-18.42-8.26-18.41-18.42-18.41Z"/>
      <rect class="cls-1" x="96.34" y="50.68" width="26.29" height="3.23"/>
      <polygon class="cls-1" points="122.99 59.94 119.62 59.94 136.92 1.78 140.29 1.78 122.99 59.94"/>
      <polygon class="cls-1" points="173.47 66.31 150.99 66.31 160.86 32.68 143.04 32.68 140.32 39.18 137.1 39.19 140.77 29.45 165.18 29.45 155.3 63.08 173.47 63.08 173.47 66.31"/>
      <polygon class="cls-1" points="143.91 22.18 140.96 20.87 149.46 1.7 173.47 1.7 170.19 11.38 167.13 10.34 168.97 4.93 151.56 4.93 143.91 22.18"/>
      <polygon class="cls-1" points="181.98 25.55 145.98 25.55 145.98 17.72 149.21 17.72 149.21 22.32 178.75 22.32 178.75 13.12 151.86 13.12 151.86 9.89 181.98 9.89 181.98 25.55"/>
      <rect class="cls-1" x="162.36" y="12.24" width="3.23" height="11.97"/>
      <rect class="cls-1" x="172.59" y="23.19" width="3.23" height="43.99" transform="translate(-5.52 54.62) rotate(-17.55)"/>
      <rect class="cls-1" x="170.23" y="32.13" width="10.89" height="3.23" transform="translate(26.9 133.08) rotate(-44.6)"/>
      <rect class="cls-1" x="215.91" width="3.23" height="6.63"/>
      <polygon class="cls-1" points="184.87 53.03 181.7 52.45 190.39 5.01 245.45 5.01 245.45 8.24 193.09 8.24 184.87 53.03"/>
      <rect class="cls-1" x="193.66" y="16.79" width="48.66" height="3.23"/>
      <polygon class="cls-1" points="211.93 33.76 201.94 33.76 201.94 12.24 205.17 12.24 205.17 30.53 211.93 30.53 211.93 33.76"/>
      <polygon class="cls-1" points="234.64 33.76 224.6 33.76 224.6 30.53 231.41 30.53 231.41 12.24 234.64 12.24 234.64 33.76"/>
      <polygon class="cls-1" points="245.6 54.63 224.72 54.63 224.72 37.57 227.96 37.57 227.96 51.4 242.37 51.4 242.37 32.15 245.6 32.15 245.6 54.63"/>
      <polygon class="cls-1" points="262.41 66.54 259.18 66.54 259.18 28.86 242.31 28.86 242.31 25.63 262.41 25.63 262.41 66.54"/>
      <polygon class="cls-1" points="305.11 66.31 268.85 66.31 268.85 63.08 301.88 63.08 301.88 4.93 262.41 4.93 262.41 22.19 259.18 22.19 259.18 1.7 305.11 1.7 305.11 66.31"/>
      <rect class="cls-1" x="269.56" y="30.53" width="23.73" height="3.23"/>
      <polygon class="cls-1" points="143.31 53.3 139.9 53.27 145.89 35.49 149.3 35.49 143.31 53.3"/>
      <polygon class="cls-1" points="150.44 53.3 147.04 53.27 153.03 35.49 156.44 35.49 150.44 53.3"/>
    </g>
  </g>
</svg>