<?xml version="1.0" encoding="UTF-8"?>
<svg xmlns="http://www.w3.org/2000/svg" version="1.1" viewBox="0 0 24 24">
  <!-- Generator: Adobe Illustrator 28.7.2, SVG Export Plug-In . SVG Version: 1.2.0 Build 154)  -->
  <g>
    <g id="_レイヤー_1" data-name="レイヤー_1">
      <path d="M15.9,6H7.7l.8-1.7c.2-.5.7-.8,1.3-.8h4c.5,0,1,.3,1.3.8l.8,1.7Z"/>
      <path d="M18.4,6H5.6c-.8,0-1.4.6-1.4,1.4v11.6c0,.8.6,1.4,1.4,1.4h12.9c.8,0,1.4-.6,1.4-1.4V7.4c0-.8-.6-1.4-1.4-1.4ZM16.9,18.2H7c-.4,0-.7-.3-.7-.7v-8.9c0-.4.3-.7.7-.7h9.9c.4,0,.7.3.7.7v8.9c0,.4-.3.7-.7.7Z"/>
      <rect x="8.7" y="10" width="3.1" height="3.1"/>
      <rect x="11.8" y="13.1" width="3.1" height="3.1"/>
      <circle cx="15.5" cy="10" r="1.1"/>
    </g>
  </g>
</svg>